<?xml version="1.0" encoding="UTF-8" standalone="no"?>
<!-- Generator: Adobe Illustrator 16.0.0, SVG Export Plug-In . SVG Version: 6.00 Build 0)  -->

<svg
   version="1.1"
   id="Your_design"
   x="0px"
   y="0px"
   width="128"
   height="127.61099"
   viewBox="0 0 128.00001 127.61099"
   enable-background="new 0 0 632.014 126.611"
   xml:space="preserve"
   sodipodi:docname="Binance_logo.svg"
   inkscape:version="1.1 (c68e22c387, 2021-05-23)"
   xmlns:inkscape="http://www.inkscape.org/namespaces/inkscape"
   xmlns:sodipodi="http://sodipodi.sourceforge.net/DTD/sodipodi-0.dtd"
   xmlns="http://www.w3.org/2000/svg"
   xmlns:svg="http://www.w3.org/2000/svg"><defs
   id="defs29" /><sodipodi:namedview
   id="namedview27"
   pagecolor="#ffffff"
   bordercolor="#666666"
   borderopacity="1.0"
   inkscape:pageshadow="2"
   inkscape:pageopacity="0.0"
   inkscape:pagecheckerboard="0"
   showgrid="false"
   width="200px"
   height="127.61099px"
   inkscape:zoom="1.8417314"
   inkscape:cx="315.7355"
   inkscape:cy="63.255694"
   inkscape:window-width="1920"
   inkscape:window-height="1017"
   inkscape:window-x="-8"
   inkscape:window-y="-8"
   inkscape:window-maximized="1"
   inkscape:current-layer="Your_design" />
<polygon
   fill="#f3ba2f"
   points="101.667,38.909 62.759,0 23.864,38.896 38.171,53.203 62.759,28.616 87.36,53.216 "
   id="polygon2"
   transform="translate(1.628902,0.54296733)" />
<rect
   x="45.911816"
   y="24.147579"
   transform="rotate(45)"
   fill="#f3ba2f"
   width="20.232805"
   height="20.233805"
   id="rect4"
   style="stroke-width:0.99999" />
<polygon
   fill="#f3ba2f"
   points="23.843,87.696 38.171,73.408 62.759,97.995 87.359,73.396 101.674,87.695 101.667,87.703 62.759,126.611 23.863,87.716 "
   id="polygon6"
   transform="translate(1.628902,0.54296733)" />
<rect
   x="-45.143147"
   y="-135.44489"
   transform="rotate(135)"
   fill="#f3ba2f"
   width="20.233805"
   height="20.232805"
   id="rect8"
   style="stroke-width:0.99999" />
<polygon
   fill="#f3ba2f"
   points="62.759,48.78 52.03,59.509 52.029,59.509 50.797,60.742 48.254,63.285 48.234,63.305 48.254,63.326 62.759,77.831 77.277,63.313 77.284,63.305 77.271,63.298 77.277,63.298 "
   id="polygon10"
   transform="translate(1.628902,0.54296733)" />







</svg>
