<?xml version="1.0" encoding="UTF-8" standalone="no"?>
<!-- Generator: Adobe Illustrator 25.0.1, SVG Export Plug-In . SVG Version: 6.00 Build 0)  -->

<svg
   version="1.1"
   id="katman_1"
   x="0px"
   y="0px"
   viewBox="0 0 294 293.99999"
   xml:space="preserve"
   sodipodi:docname="coinbase-new-2021-seeklogo.com.svg"
   width="294"
   height="294"
   inkscape:version="1.1 (c68e22c387, 2021-05-23)"
   xmlns:inkscape="http://www.inkscape.org/namespaces/inkscape"
   xmlns:sodipodi="http://sodipodi.sourceforge.net/DTD/sodipodi-0.dtd"
   xmlns="http://www.w3.org/2000/svg"
   xmlns:svg="http://www.w3.org/2000/svg"><defs
   id="defs15" /><sodipodi:namedview
   id="namedview13"
   pagecolor="#ffffff"
   bordercolor="#666666"
   borderopacity="1.0"
   inkscape:pageshadow="2"
   inkscape:pageopacity="0.0"
   inkscape:pagecheckerboard="0"
   showgrid="false"
   inkscape:snap-page="false"
   width="1245.28px"
   height="817.89001px"
   inkscape:zoom="0.93472952"
   inkscape:cx="525.82056"
   inkscape:cy="324.69286"
   inkscape:window-width="1920"
   inkscape:window-height="1017"
   inkscape:window-x="-8"
   inkscape:window-y="-8"
   inkscape:window-maximized="1"
   inkscape:current-layer="katman_1" />
<style
   type="text/css"
   id="style2">
	.st0{fill:#3259A5;}
	.st1{fill:#FFFFFF;}
</style>
<g
   id="g8"
   transform="translate(-469.65458,-132.6587)">
	<circle
   class="st0"
   cx="616.70001"
   cy="280"
   r="145.66"
   id="circle4" />
	<path
   class="st1"
   d="m 666.94,289.5 c -4.45,23.58 -25.14,41.41 -50.01,41.41 -28.12,0 -50.91,-22.79 -50.91,-50.91 0,-28.12 22.79,-50.91 50.91,-50.91 24.87,0 45.56,17.84 50.01,41.41 h 51.37 c -4.79,-51.78 -48.35,-92.32 -101.38,-92.32 -56.24,0 -101.82,45.59 -101.82,101.82 0,56.24 45.59,101.82 101.82,101.82 53.03,0 96.59,-40.54 101.38,-92.32 z"
   id="path6" />
</g>

</svg>
